<?xml version="1.0" encoding="utf-8"?>
<!-- Generator: Adobe Illustrator 27.5.0, SVG Export Plug-In . SVG Version: 6.00 Build 0)  -->
<svg version="1.1" xmlns="http://www.w3.org/2000/svg" xmlns:xlink="http://www.w3.org/1999/xlink" x="0px" y="0px"
	 viewBox="0 0 1122 1122" style="enable-background:new 0 0 1122 1122;" xml:space="preserve">
<g id="background">
	<rect x="0" y="0" style="fill:#FFFFFF;" width="1122" height="1122"/>
</g>
<g id="object">
	<polygon style="fill:#3A494C;" points="133.445,942.69 103.042,942.69 103.042,884.781 163.848,884.781 163.848,910.902 	"/>
	<polygon style="fill:#3A494C;" points="489.964,938.358 520.367,938.358 520.367,880.449 459.56,880.449 459.56,906.57 	"/>
	<path style="fill:#506266;" d="M531.523,902.519H119.198c-11.393,0-20.628-9.235-20.628-20.628V426.948
		c0-11.393,9.236-20.628,20.628-20.628h412.325c11.393,0,20.628,9.236,20.628,20.628v454.944
		C552.151,893.284,542.916,902.519,531.523,902.519z"/>
	<path style="fill:#343738;" d="M514.359,860.266H136.362c-2.107,0-3.816-1.708-3.816-3.816V452.389
		c0-2.107,1.708-3.816,3.816-3.816h377.997c2.108,0,3.816,1.708,3.816,3.816V856.45
		C518.175,858.558,516.467,860.266,514.359,860.266z"/>
	<path style="opacity:0.14;" d="M310.524,909.404c-39.574,0.262-79.269-2.443-118.767,1.092
		c-16.173,1.447-101.382,11.825-94.362,39.337c6.205,24.317,62.593,23.596,81.005,24.837c35.426,2.39,70.972,0.659,106.391-0.964
		c143.741-6.586,287.72-9.62,431.7-9.094c70.521,0.257,141.042,1.365,211.536,3.328c22.858,0.636,45.721,2.557,68.59,1.087
		c11.339-0.729,24.058-1.606,34.764-5.744c16.715-6.461,7.062-16.762-4.852-20.106c-14.715-4.13-30.337-5.878-45.491-7.492
		c-30.962-3.3-62.162-3.78-93.105-7.234c-64.764-7.228-129.564-16.349-194.779-17.836
		C552.153,907.4,439.596,908.549,310.524,909.404z"/>
	<g>
		<g>
			<g>
				<g>
					<circle style="fill:#F6D738;" cx="450.293" cy="711.444" r="160.39"/>
				</g>
				<g>
					
						<ellipse transform="matrix(0.7071 -0.7071 0.7071 0.7071 -371.1788 526.7822)" style="fill:#F3CC30;" cx="450.293" cy="711.444" rx="136.121" ry="136.121"/>
				</g>
				<g>
					<path style="fill:#EDBD31;" d="M521.51,595.264c13.556,21.163,21.416,46.324,21.416,73.321
						c0,75.178-60.944,136.121-136.121,136.121c-26.109,0-50.498-7.357-71.217-20.102c24.192,37.768,66.525,62.8,114.706,62.8
						c75.178,0,136.121-60.944,136.121-136.121C586.414,662.215,560.447,619.216,521.51,595.264z"/>
				</g>
				<g>
					<path style="fill:#F7DB5E;" d="M338.017,723.899c0-66.362,53.797-120.16,120.16-120.16c38.79,0,73.28,18.385,95.25,46.912
						c-20.749-36.021-59.639-60.271-104.194-60.271c-66.362,0-120.16,53.797-120.16,120.16c0,27.573,9.293,52.971,24.91,73.248
						C343.827,766.157,338.017,745.706,338.017,723.899z"/>
				</g>
				<path style="fill:#D49A34;" d="M461.53,623.586v17.342c6.959,1.121,12.652,3.422,17.076,6.901
					c4.424,3.481,8.64,8.819,12.652,16.014l-17.253,9.645c-5.191-9.437-11.975-14.157-20.35-14.157
					c-5.191,0-9.498,1.535-12.918,4.601c-3.422,3.067-5.132,6.901-5.132,11.502c0,4.189,1.385,7.669,4.159,10.44
					c2.712,2.714,8.198,5.928,16.456,9.644c7.136,3.245,13.035,6.297,17.695,9.157c4.659,2.862,8.169,5.618,10.529,8.273
					c6.665,7.197,9.998,15.897,9.998,26.101c0,10.028-3.008,18.876-9.025,26.543c-5.959,7.609-13.922,12.741-23.889,15.395v18.315
					h-15.484v-17.784c-11.561-1.888-20.38-5.868-26.454-11.944c-6.076-6.075-10.559-15.453-13.449-28.136l19.465-4.07
					c2.654,8.967,5.898,15.366,9.733,19.199c4.01,3.658,9.348,5.486,16.014,5.486c6.488,0,11.914-2.094,16.28-6.282
					c4.305-4.128,6.459-9.467,6.459-16.015c0-5.839-1.8-10.529-5.397-14.068c-1.829-1.71-4.528-3.641-8.096-5.795
					c-3.569-2.153-8.126-4.497-13.67-7.034c-11.443-5.132-18.965-9.85-22.561-14.156c-5.722-6.429-8.582-14.126-8.582-23.092
					c0-4.247,0.677-8.198,2.034-11.856c1.357-3.657,3.318-6.974,5.884-9.954c2.566-2.978,5.736-5.558,9.512-7.742
					c3.774-2.181,8.051-3.893,12.829-5.132v-17.342H461.53z"/>
			</g>
		</g>
		
			<ellipse transform="matrix(0.7071 -0.7071 0.7071 0.7071 -371.1789 526.7822)" style="opacity:0.12;" cx="450.293" cy="711.444" rx="160.39" ry="160.39"/>
	</g>
	<g>
		<path style="fill:#E5D1BD;" d="M750.679,431.989c3.397-2.354,6.795-4.707,10.192-7.061c1.052-0.729,3.529-3.319,4.907-1.854
			c0.669,0.711,3.129,2.939,5.457,5.308c2.524,1.242,5,2.589,7.623,3.613c6.637,2.591,23.405,1.014,24.633,9.952
			c0.237,1.729,0.473,3.501,0.05,5.157c-0.346,1.353-1.114,2.554-1.933,3.693c-0.638,0.888-1.41,2.453-2.541,2.617
			c-1.188,0.172-3.943-1.258-5.149-1.643c-3.447-1.099-6.893-2.198-10.34-3.296c-3.381-1.078-7.449-2.061-10.019-0.024
			c-0.562,0.445-1.01,1.015-1.637,1.381c-0.708,0.413-1.582,0.532-2.433,0.618c-3.119,0.318-6.362,0.409-9.534,0.039
			c-2.895-0.338-3.872-2.312-5.632-4.311c-2.058-2.337-5.06-3.079-7.143-5.345c-1.175-1.279-1.877-3.055-1.331-4.558
			c0.442-1.217,1.59-2.041,2.687-2.801C749.251,432.978,749.965,432.484,750.679,431.989z"/>
		<path style="fill:#7BA3A8;" d="M875.752,469.111c-7.208,2.456-14.8,3.215-23.789,2.532c-22.209-1.69-44.374-6.598-65.436-14.489
			c0.159-9.648,2.41-19.126,6.581-27.71c18.169,2.751,36.472,4.17,54.68,4.24c8.921,0.034,16.729-1.326,21.93-8.255
			c11.579-15.429,21.843-31.747,30.677-48.773c1.953-3.764,3.897-7.643,7.114-10.525c5.899-5.285,15.496-6.277,23.651-3.497
			c8.155,2.779,14.872,8.875,19.328,15.868c3.194,5.012,5.385,10.768,4.728,16.33c-0.679,5.754-4.278,10.634-7.937,15.146
			c-16.325,20.127-35.972,37.845-58.137,52.43C884.663,465.354,880.284,467.568,875.752,469.111z"/>
	</g>
	<g>
		<g>
			<path style="fill:#E5D1BD;" d="M1041.106,891.945c-2.993,3.375-5.986,6.751-8.979,10.126
				c-12.769-8.739-25.015-18.743-36.374-29.717c6.249-2.753,10.236-10.861,18.949-4.462
				C1017.522,869.964,1040.515,892.612,1041.106,891.945z"/>
			<path style="fill:#4D4D4D;" d="M1026.202,901.883c-0.47,2.229,0.151,4.714,1.7,6.805c4.134,5.579,4.086,11.919,5.04,18.752
				c0.315,2.258,0.443,4.994-1.397,6.342c-0.914,0.67-2.156,0.832-2.972,1.619c-1.348,1.299-0.789,3.747,0.677,4.912
				c1.466,1.165,3.469,1.352,5.341,1.326c2.087-0.028,4.171-0.262,6.212-0.697c3.075-0.655,6.28-1.948,7.905-4.639
				c1.635-2.707,1.738-6.568,2.971-9.555c1.691-4.095,2.815-7.947,3.273-12.396c0.869-8.441-0.071-16.943-0.91-25.345
				c-0.085-0.853-0.201-1.756-0.809-2.504c-0.651-0.799-1.74-1.269-2.777-1.679c-5.772-2.282-14.523-5.877-16.851,0.743
				c-0.993,2.824,0.172,6.201-1.094,9.16C1031.474,897.153,1026.624,899.877,1026.202,901.883z"/>
		</g>
		<path style="fill:#506266;" d="M834.062,758.497c-1.478,3.419-2.982,7.021-2.651,10.731c0.416,4.677,3.636,8.566,6.768,12.065
			c44.39,49.605,100.03,87.555,155.074,124.988c0.949,0.646,2.051,1.323,3.168,1.059c0.805-0.19,1.414-0.828,1.973-1.437
			c13.252-14.427,26.505-28.854,39.757-43.281c3.194-3.477,6.576-7.399,6.684-12.12c0.107-4.706-3.074-8.77-6.089-12.385
			c-25.69-30.794-51.38-61.588-77.07-92.382c-1.493-1.79-3.06-3.761-3.161-6.09c-0.075-1.72,0.673-3.357,1.404-4.916
			c9.958-21.243,19.916-42.487,29.874-63.73c9.084-19.379,24.435-69.966,12.919-88.007c-12.206-19.123-64.3-43.219-84.49-32.873
			C879.364,570.035,858.459,702.053,834.062,758.497z"/>
		<g>
			<path style="fill:#E5D1BD;" d="M936.7,946.163c-4.521-0.957-9.042-1.914-13.562-2.87c0.257-16.587,1.875-33.372,4.807-49.858
				c5.811,4.319,14.885,3.641,14.341,15.195C942.109,912.369,935.806,945.974,936.7,946.163z"/>
			<path style="fill:#4D4D4D;" d="M919.991,937.684c-2.145,0.768-3.897,2.688-4.799,5.257c-0.524,1.492-0.778,3.204-1.539,4.484
				c-0.746,1.254-1.904,1.966-3.031,2.646c-5.387,3.249-9.589,4.729-14.411,9.118c-1.721,1.567-3.689,2.863-5.808,3.825
				c-0.641,0.291-1.327,0.576-1.746,1.141c-0.502,0.677-0.503,1.603-0.338,2.43c0.681,3.428,3.813,5.988,7.201,6.849
				c4.039,1.027,8.341,0.368,12.442,1.131c4.818,0.896,9.522-0.071,14.031-1.848c9.12-3.594,16.846-10.053,24.408-16.122
				c0.673-0.541,1.372-1.135,1.663-2.105c0.312-1.037,0.101-2.302-0.131-3.488c-1.293-6.596-3.139-16.671-10.029-15.255
				c-2.939,0.604-5.142,3.511-8.348,3.934C926.927,940.027,921.92,936.993,919.991,937.684z"/>
		</g>
		<path style="fill:#63767C;" d="M881.885,894.144c25.611,4.444,50.972,11.053,75.752,19.741
			c10.746-17.577,16.432-38.133,21.319-58.581c12.543-52.488,20.657-106.207,28.756-159.846
			c4.197-27.798,8.394-55.597,12.591-83.395c3.459-22.911,13.504-48.259-9.123-64.207c-6.638-4.679-14.407-7.449-22.121-9.989
			c-9.372-3.086-18.988-5.94-28.854-6.035c-9.867-0.096-20.151,2.895-26.986,10.012c-10.057,10.473-10.352,26.588-10.998,41.094
			c-1.616,36.293-10.66,70.801-16.11,106.504c-5.648,37.002-7.72,74.42-11.176,111.659
			C892.033,832.376,888.498,863.631,881.885,894.144z"/>
		<path style="fill:#8EB3BA;" d="M971.489,347.55c36.893,22.927,58.899,87.727,64.893,124.643
			c7.741,47.672,2.94,96.623-4.451,144.405c-60.054-16.28-120.566-30.734-181.434-43.337c6.539,1.354,26.268-35.38,29.187-40.927
			c7.583-14.412,16.351-32.67,17.25-49.359c1.875-34.791-9.297-70.875-0.495-105.443c6.215-24.409,26.679-39.918,50.794-38.181
			C955.923,339.977,964.012,342.904,971.489,347.55z"/>
	</g>
	<g>
		<g>
			<g>
				<circle style="fill:#F6D738;" cx="620.777" cy="551.043" r="211.281"/>
			</g>
			<g>
				<circle style="fill:#F3CC30;" cx="620.777" cy="551.043" r="179.312"/>
			</g>
			<g>
				<path style="fill:#EDBD31;" d="M721.99,402.789c16.467,28.721,25.182,62.333,23.436,97.854
					c-4.861,98.912-88.985,175.155-187.896,170.295c-34.352-1.688-65.965-12.944-92.401-31.053
					c29.388,51.256,83.467,86.927,146.859,90.043c98.912,4.861,183.036-71.383,187.897-170.295
					C803.056,495.073,771.671,436.821,721.99,402.789z"/>
			</g>
			<g>
				<path style="fill:#F7DB5E;" d="M472.25,560.171c4.291-87.313,78.55-154.617,165.864-150.326
					c51.036,2.508,95.226,28.928,122.287,67.88c-24.971-48.734-74.57-83.155-133.191-86.036
					c-87.313-4.291-161.573,63.013-165.864,150.326c-1.783,36.278,8.803,70.295,28.039,97.984
					C477.162,616.146,470.84,588.864,472.25,560.171z"/>
			</g>
			<path style="fill:#D49A34;" d="M641.242,436.175l-1.121,22.816c9.083,1.925,16.425,5.32,22.021,10.184
				c5.596,4.866,10.798,12.162,15.611,21.888l-23.323,11.574c-6.22-12.752-14.84-19.401-25.859-19.942
				c-6.83-0.336-12.596,1.405-17.293,5.219c-4.7,3.814-7.198,8.748-7.495,14.801c-0.271,5.511,1.327,10.179,4.796,14.005
				c3.393,3.745,10.402,8.33,21.028,13.753c9.179,4.73,16.743,9.128,22.69,13.193c5.945,4.066,10.385,7.92,13.318,11.565
				c8.304,9.9,12.127,21.562,11.467,34.987c-0.648,13.194-5.178,24.641-13.59,34.339c-8.332,9.627-19.141,15.863-32.426,18.711
				l-1.184,24.097l-20.372-1.001l1.15-23.399c-15.089-3.232-26.434-9.039-34.034-17.425c-7.601-8.386-12.894-21.015-15.875-37.888
				l25.873-4.097c2.913,11.969,6.766,20.599,11.564,25.89c5.04,5.072,11.944,7.822,20.715,8.253
				c8.536,0.419,15.811-1.984,21.825-7.213c5.931-5.153,9.11-12.039,9.534-20.653c0.378-7.683-1.688-13.969-6.191-18.858
				c-2.296-2.368-5.722-5.083-10.277-8.148c-4.557-3.063-10.4-6.442-17.53-10.138c-14.724-7.492-24.315-14.186-28.769-20.084
				c-7.112-8.828-10.378-19.141-9.798-30.938c0.275-5.588,1.421-10.743,3.443-15.468c2.022-4.723,4.817-8.961,8.385-12.716
				c3.569-3.752,7.907-6.942,13.015-9.571c5.107-2.626,10.845-4.601,17.211-5.922l1.121-22.816L641.242,436.175z"/>
		</g>
	</g>
	<g>
		<path style="fill:#E5D1BD;" d="M771.828,479.663c3.397-2.354,6.795-4.707,10.192-7.061c1.052-0.729,3.529-3.319,4.907-1.854
			c0.669,0.711,3.129,2.939,5.457,5.308c2.524,1.242,5,2.589,7.623,3.613c6.637,2.591,23.405,1.014,24.633,9.952
			c0.237,1.729,0.473,3.501,0.05,5.157c-0.346,1.353-1.114,2.554-1.933,3.693c-0.638,0.888-1.41,2.453-2.541,2.617
			c-1.188,0.172-3.943-1.258-5.149-1.643c-3.447-1.099-6.893-2.197-10.34-3.296c-3.381-1.078-7.449-2.061-10.018-0.024
			c-0.562,0.446-1.01,1.015-1.638,1.381c-0.708,0.413-1.582,0.532-2.433,0.618c-3.119,0.318-6.362,0.409-9.534,0.039
			c-2.895-0.338-3.872-2.312-5.632-4.311c-2.058-2.337-5.06-3.079-7.143-5.345c-1.175-1.279-1.877-3.055-1.331-4.558
			c0.442-1.217,1.59-2.042,2.687-2.801C770.4,480.653,771.114,480.158,771.828,479.663z"/>
		<path style="fill:#8EB3BA;" d="M896.901,516.786c-7.208,2.456-14.8,3.215-23.789,2.531c-22.209-1.69-44.374-6.598-65.436-14.489
			c0.159-9.648,2.41-19.126,6.581-27.71c18.169,2.751,36.472,4.17,54.68,4.239c8.921,0.034,16.729-1.326,21.93-8.255
			c11.579-15.429,21.843-31.747,30.677-48.773c1.953-3.764,3.897-7.643,7.114-10.525c5.899-5.285,15.496-6.277,23.651-3.498
			c8.155,2.779,14.872,8.875,19.328,15.869c3.194,5.012,5.385,10.768,4.728,16.33c-0.679,5.754-4.278,10.634-7.937,15.146
			c-16.325,20.127-35.972,37.845-58.137,52.43C905.812,513.028,901.432,515.242,896.901,516.786z"/>
	</g>
	<g>
		<g>
			<g>
				<path style="fill:#E5D1BD;" d="M926.293,354.917c8.182-1.664,16.365-3.327,24.547-4.991c-0.328-3.646-0.816-7.278-1.462-10.881
					c-0.498-2.777-2.339-6.877-1.432-9.483c1.069-3.073,3.792-5.966,5.072-9.102c1.321-3.238,2.275-6.622,2.913-10.059
					c1.04-5.606,1.285-11.368,1.01-17.056c-0.21-4.361-2.428-8.21-3.605-12.415c-0.891-3.184-1.828-6.459-3.874-9.056
					c-3.59-4.557-9.81-6.075-15.597-6.482c-16.474-1.157-45.821,6.408-44.091,27.583c0.38,4.648,1.51,9.199,2.637,13.725
					c2.377,9.549,3.431,27.842,15.137,31.074c3.301,0.911,7.012,0.167,10.073,1.702
					C923.018,342.182,923.104,349.789,926.293,354.917z"/>
			</g>
		</g>
		<path style="fill:#A09187;" d="M954.975,317.789c1.477-2.817,2.866-5.704,3.13-6.168c3.096-5.44,5.634-11.67,4.098-18.016
			c-0.979-4.045-3.509-7.594-6.354-10.7c-10.71-11.689-26.858-18.343-42.63-17.566c-9.497,0.468-22.048,6.489-22.33,17.541
			c8.88,0.853,12.82,12.157,20.964,15.797c3.769,1.685,8.066,1.547,12.191,1.377c0.914-0.037,1.878-0.09,2.646-0.587
			c1.115-0.721,1.492-2.137,2.08-3.327c1.133-2.294,3.58-4.073,6.124-3.801c2.544,0.272,4.685,3.091,3.757,5.476
			c-0.943,2.424-3.989,3.055-6.527,3.623c-0.773,0.173-1.703,0.557-1.744,1.348c-0.028,0.533,0.385,0.975,0.769,1.346
			c6.668,6.459,13.336,12.918,20.003,19.377C951.597,323.942,953.34,320.908,954.975,317.789z"/>
		<path style="fill:#534741;" d="M911.42,275.911c3.918,1.025,7.694,2.826,11.455,4.26c1.573,0.6,7.153,3.222,8.702,2.303
			c1.554-0.922,0.105-5.368,1.696-7.261c4.515-5.37,9.566,0.131,12.103,4.293c2.951,4.842,4.756,10.659,9.463,14.295
			c1.006,0.777,2.126,1.429,2.994,2.352c2.961,3.152,1.957,8.001,0.762,11.983c0.299-0.997,2.914-2.571,3.712-3.345
			c1.303-1.264,2.555-2.579,3.751-3.94c2.493-2.836,4.747-5.872,6.737-9.071c3.818-6.139,5.714-13.257,10.584-18.709
			c1.842-2.062,4.17-3.665,6.046-5.699c3.126-3.391,4.879-7.964,4.832-12.607c-1.837,4.279-7.637,5.685-12.325,4.38
			c-4.688-1.305-8.537-4.592-12.305-7.671c-3.768-3.079-7.882-6.159-12.679-6.886c-4.355-0.661-8.67,0.715-13.046,0.841
			c-4.609,0.133-9.184-1.121-13.789-1.648c-13.286-1.521-26.976,3.445-35.542,13.066c-5.46,6.131-8.863,14.204-9.597,22.402
			c-0.432,4.834-1.033,9.087,3.903,11.954c-1.712-0.994,4.283-9.927,5.106-10.838c3.312-3.664,6.409-5.182,11.276-5.266
			C907.362,275.063,909.41,275.385,911.42,275.911z"/>
	</g>
	<g>
		<g>
			<g>
				<path style="fill:#63767C;" d="M463.674,918.488l-326.376-58.54c-1.439-0.258-2.603-2.197-2.603-4.332V453.223
					c0-2.135,1.164-4.074,2.603-4.332l326.376-58.54c2.382-0.427,4.319,1.461,4.319,4.218V914.27
					C467.993,917.027,466.056,918.915,463.674,918.488z"/>
				<g>
					<g>
						<path style="fill:#506266;" d="M376.181,654.42c0,64.006-40.97,112.465-88.286,108.505
							c-44.098-3.691-77.703-52.171-77.703-108.505s33.606-104.814,77.703-108.505C335.212,541.955,376.181,590.413,376.181,654.42z
							"/>
					</g>
					<path style="fill:#A4BBBC;" d="M354.814,654.42c0,48.515-30.795,85.86-66.918,83.532
						c-34.216-2.205-60.656-39.557-60.656-83.532c0-43.975,26.44-81.328,60.656-83.533
						C324.018,568.56,354.814,605.905,354.814,654.42z"/>
					<path style="fill:#4D4D4D;" d="M310.524,654.42c0,16.406-10.228,29.475-22.629,29.195
						c-12.168-0.274-21.866-13.343-21.866-29.195s9.698-28.922,21.866-29.195C300.296,624.945,310.524,638.014,310.524,654.42z"/>
					<path style="opacity:0.11;fill:#FFFFFF;" d="M305.798,635.927c1.981,4.359,3.125,9.453,3.125,14.907
						c0,16.386-10.204,29.467-22.574,29.222c-6.97-0.138-13.118-4.49-17.09-11.135c3.759,8.604,10.789,14.518,18.936,14.701
						c12.406,0.279,22.639-12.793,22.639-29.202C310.834,647.394,308.942,640.962,305.798,635.927z"/>
					<g>
						<g>
							<path style="fill:#4D4D4D;" d="M289.713,736.429c0-6.184,0-12.367,0-18.551c0-2.558-3.025-2.704-3.025-0.148
								c0,6.169,0,12.339,0,18.508C286.688,738.79,289.713,738.991,289.713,736.429L289.713,736.429z"/>
						</g>
						<g>
							<path style="fill:#4D4D4D;" d="M289.713,590.961c0-6.184,0-12.367,0-18.551c0-2.558-3.025-2.365-3.025,0.191
								c0,6.169,0,12.339,0,18.508C286.688,593.661,289.713,593.523,289.713,590.961L289.713,590.961z"/>
						</g>
					</g>
					<g>
						<g>
							<path style="fill:#4D4D4D;" d="M228.383,657.094c4.297-0.021,8.624-0.042,12.981-0.064c1.811-0.009,1.8-3.842-0.014-3.827
								c-4.357,0.035-8.684,0.069-12.981,0.103C226.6,653.321,226.611,657.103,228.383,657.094L228.383,657.094z"/>
						</g>
						<g>
							<path style="fill:#4D4D4D;" d="M338.046,656.557c5.094-0.025,10.227-0.05,15.399-0.075c2.151-0.011,2.137-4.188-0.017-4.17
								c-5.172,0.041-10.305,0.082-15.399,0.123C335.933,652.451,335.946,656.567,338.046,656.557L338.046,656.557z"/>
						</g>
					</g>
					<g>
						<g>
							<path style="fill:#4D4D4D;" d="M247.195,713.467c3.057-4.19,6.13-8.4,9.217-12.631c1.282-1.756-0.798-4.508-2.077-2.749
								c-3.077,4.231-6.14,8.441-9.187,12.63C243.891,712.445,245.932,715.197,247.195,713.467L247.195,713.467z"/>
						</g>
						<g>
							<path style="fill:#4D4D4D;" d="M323.292,609.186c3.44-4.714,6.897-9.452,10.373-14.215c1.443-1.977-0.898-4.712-2.339-2.732
								c-3.463,4.761-6.909,9.498-10.337,14.211C319.577,608.393,321.872,611.132,323.292,609.186L323.292,609.186z"/>
						</g>
					</g>
					<g>
						<g>
							<path style="fill:#4D4D4D;" d="M247.32,595.984c2.889,4.406,5.792,8.832,8.709,13.279c1.21,1.845,3.399-0.762,2.183-2.611
								c-2.926-4.448-5.839-8.876-8.739-13.284C248.277,591.551,246.126,594.165,247.32,595.984L247.32,595.984z"/>
						</g>
						<g>
							<path style="fill:#4D4D4D;" d="M319.008,705.295c3.229,4.924,6.474,9.872,9.735,14.844c1.353,2.064,3.802-0.491,2.441-2.559
								c-3.273-4.975-6.53-9.926-9.77-14.852C320.078,700.697,317.675,703.262,319.008,705.295L319.008,705.295z"/>
						</g>
					</g>
				</g>
				<path style="fill:#798E91;" d="M419.438,745.67l-0.159-0.01c-3.119-0.199-5.638-3.369-5.638-7.081V573.98
					c0-3.712,2.519-6.875,5.638-7.066l0.159-0.01c3.134-0.192,5.684,2.685,5.684,6.426v165.928
					C425.122,743,422.572,745.87,419.438,745.67z"/>
			</g>
			<path style="fill:#798E91;" d="M472.036,918.548h-8.362V390.351h8.362c1.122,0,2.031,0.909,2.031,2.031v524.135
				C474.067,917.639,473.158,918.548,472.036,918.548z"/>
		</g>
		<g>
			<path style="fill:#798E91;" d="M149.469,555.076v-27.582c0-7.118-5.77-12.889-12.889-12.889c-7.118,0-12.889,5.771-12.889,12.889
				v27.582H149.469z"/>
			<path style="fill:#798E91;" d="M123.691,558.685v27.582c0,7.118,5.771,12.889,12.889,12.889c7.118,0,12.889-5.77,12.889-12.889
				v-27.582H123.691z"/>
		</g>
		<g>
			<path style="fill:#798E91;" d="M146.203,741.364v-27.582c0-7.118-5.77-12.889-12.889-12.889c-7.118,0-12.889,5.771-12.889,12.889
				v27.582H146.203z"/>
			<path style="fill:#798E91;" d="M120.426,744.973v27.582c0,7.118,5.771,12.889,12.889,12.889c7.118,0,12.889-5.771,12.889-12.889
				v-27.582H120.426z"/>
		</g>
	</g>
</g>
</svg>
